<svg version="1.1" id="Layer_1" xmlns="http://www.w3.org/2000/svg" xmlns:xlink="http://www.w3.org/1999/xlink" x="0px" y="0px"
	 width="100%" viewBox="0 0 236 183" enable-background="new 0 0 236 183" xml:space="preserve">
<path fill="#FEFDFD" opacity="1.000000" stroke="none" 
	d="
M1.000000,68.000000 
	C1.000000,45.333340 1.000000,23.166677 1.000000,1.000012 
	C79.666641,1.000008 158.333282,1.000008 236.999939,1.000004 
	C236.999969,61.999958 236.999969,122.999916 236.999985,183.999908 
	C158.333389,183.999939 79.666779,183.999939 1.000086,183.999969 
	C1.000000,145.500000 1.000000,107.000000 1.000000,68.000000 
M145.353180,154.272507 
	C145.905838,154.195908 146.458496,154.119308 147.869415,154.239456 
	C151.171890,153.716873 154.474350,153.194290 159.022186,152.474640 
	C156.527405,149.319473 155.217773,147.663177 153.977356,145.311203 
	C152.332825,142.849152 150.688293,140.387115 148.890778,137.251663 
	C146.679565,133.874329 144.468353,130.496994 142.121994,126.547096 
	C141.194962,125.241341 140.267929,123.935585 139.078705,121.996742 
	C136.419144,117.987343 133.759583,113.977936 130.958710,109.282349 
	C119.464607,91.457306 107.970505,73.632271 96.218613,55.141163 
	C94.176979,52.079960 92.135338,49.018761 89.954285,45.280033 
	C88.307442,42.844490 86.660599,40.408947 84.856529,37.302181 
	C82.160423,34.236351 81.001884,29.492767 76.262169,28.423416 
	C78.228149,25.120598 75.661026,23.149015 73.886742,20.230671 
	C72.381302,18.356632 70.875870,16.482595 69.370438,14.608557 
	C68.833336,14.702098 68.296242,14.795638 67.759148,14.889178 
	C67.682068,16.297060 67.527390,17.706097 67.548317,19.112520 
	C67.572357,20.728371 67.751877,22.341909 67.293495,24.296661 
	C65.244240,27.531672 63.194981,30.766682 60.731632,34.551281 
	C53.723198,45.322300 46.714764,56.093319 39.157150,67.199852 
	C38.059814,69.026390 36.962479,70.852921 35.296490,73.073753 
	C33.498775,75.981468 31.701061,78.889183 29.302130,82.135483 
	C27.700302,84.436714 25.741840,86.575790 24.600412,89.086342 
	C23.532707,91.434738 23.331289,94.177002 22.748613,96.745918 
	C23.356253,96.940971 23.963894,97.136024 24.571533,97.331078 
	C27.080013,93.569435 29.588491,89.807785 32.669315,85.712997 
	C34.154152,83.255928 35.638992,80.798859 37.683125,77.948608 
	C38.820419,76.043404 39.957714,74.138199 41.689186,71.882370 
	C50.111214,58.917015 58.533245,45.951660 67.497208,32.575809 
	C68.848526,30.584112 70.199844,28.592417 71.374710,26.860800 
	C73.193863,27.701941 74.580841,28.343254 76.370049,29.707100 
	C77.663681,34.464622 75.531883,38.287575 72.458870,42.388123 
	C64.589256,54.570522 56.719646,66.752922 48.286293,79.287369 
	C46.148384,82.736473 44.010475,86.185577 41.299500,90.037354 
	C39.134495,93.488991 36.969490,96.940620 34.235043,100.826851 
	C32.802494,103.170410 31.369942,105.513977 29.307940,108.215485 
	C26.316698,112.936127 26.316698,112.936127 29.134401,117.314827 
	C30.183809,115.480576 31.128733,113.828957 32.643856,111.801949 
	C34.156208,109.329735 35.668560,106.857521 37.740746,103.972488 
	C39.530884,101.066803 41.321018,98.161110 43.700523,94.895386 
	C46.155544,90.977173 48.610565,87.058960 51.653423,82.795204 
	C60.444771,69.198944 69.236122,55.602680 78.537132,41.691540 
	C79.116409,40.930336 79.695686,40.169136 80.027451,39.733173 
	C80.710335,40.241947 81.323029,40.698425 82.160255,41.809910 
	C83.378120,43.544083 84.595978,45.278255 85.719467,47.781582 
	C84.686882,49.475769 83.688011,51.191608 82.616241,52.860634 
	C75.744278,63.562019 68.856316,74.253136 61.410629,85.327446 
	C59.223564,88.866859 57.036503,92.406273 54.294548,96.280602 
	C53.169209,98.130287 52.043869,99.979965 50.313881,102.164635 
	C48.545803,105.118813 46.777721,108.072983 44.462158,111.407722 
	C42.917831,113.912720 41.373505,116.417717 39.264854,119.204758 
	C38.457409,120.664787 37.649960,122.124825 36.242649,124.003700 
	C34.363407,126.665245 32.251934,129.335373 36.683910,132.026505 
	C37.751045,130.275818 38.751869,128.633911 40.149338,126.416313 
	C41.244377,124.668449 42.339420,122.920578 43.937546,120.788536 
	C45.020008,118.990578 46.102470,117.192619 47.742672,114.972778 
	C49.576614,111.687836 51.410561,108.402901 53.892693,104.959183 
	C55.309677,102.662857 56.726662,100.366531 58.754486,97.793854 
	C60.552513,94.961342 62.350540,92.128830 64.734917,88.891632 
	C72.599663,76.862442 80.464401,64.833260 88.564537,52.444046 
	C89.938347,54.195515 91.037666,55.597034 92.276619,57.677929 
	C94.468315,59.857338 93.775993,61.827396 92.246178,64.167076 
	C85.602646,74.327621 79.131569,84.600929 72.091614,95.245583 
	C70.355011,98.077652 68.618401,100.909714 66.325500,104.122162 
	C65.189781,106.024605 64.054062,107.927055 62.311184,110.151848 
	C60.772797,112.725151 59.234406,115.298454 57.160961,118.239784 
	C56.026535,120.121330 54.892105,122.002876 53.176178,124.260040 
	C51.875546,126.970787 50.574917,129.681534 49.274284,132.392288 
	C50.025204,132.829544 50.776123,133.266815 51.527042,133.704071 
	C53.413044,131.274170 55.299046,128.844284 57.714325,126.031578 
	C58.579830,124.590637 59.445335,123.149696 60.832932,121.233833 
	C62.248135,118.888321 63.663334,116.542809 65.635735,113.814987 
	C67.044556,111.523499 68.453384,109.232018 70.256157,106.378700 
	C72.255966,102.951759 74.255775,99.524818 76.816467,95.718475 
	C83.529465,85.794502 90.242462,75.870537 97.000389,65.880135 
	C103.121559,73.102730 103.090019,73.082733 98.540848,80.258530 
	C92.278351,90.136932 86.069313,100.049225 79.277153,110.307381 
	C77.127235,113.849907 74.977318,117.392426 72.248138,121.261436 
	C70.494759,124.172310 68.741379,127.083176 66.444061,130.383392 
	C64.922913,132.907135 63.401760,135.430878 61.293587,138.260086 
	C60.193707,140.173401 59.093830,142.086700 57.465775,144.410492 
	C55.971947,146.726212 54.478119,149.041931 53.067177,151.229156 
	C57.012753,155.688889 61.624714,154.291077 66.856262,154.235611 
	C68.572968,154.164825 70.289680,154.094025 72.907829,154.230042 
	C76.607063,154.160309 80.306297,154.090576 84.923088,154.227432 
	C98.947212,154.158417 112.971344,154.089386 127.894615,154.220932 
	C131.262512,154.154297 134.630417,154.087662 138.854782,154.222656 
	C140.899124,154.161652 142.943481,154.100632 145.353180,154.272507 
M158.995026,134.909622 
	C159.981979,136.302170 160.968948,137.694717 162.107285,139.764999 
	C163.101608,141.220459 164.095932,142.675934 165.106674,144.155411 
	C170.382507,141.058212 166.828308,138.565567 164.852997,135.344833 
	C163.845612,133.907486 162.838211,132.470139 161.667938,130.394760 
	C160.415817,128.606750 159.163712,126.818741 157.788895,124.363441 
	C156.231888,122.162773 154.674866,119.962105 153.004898,117.119942 
	C151.785614,115.363327 150.566315,113.606720 149.146942,111.202675 
	C147.937698,109.402397 146.728455,107.602127 145.091156,105.230583 
	C143.501831,102.784714 141.912521,100.338837 140.099106,97.209732 
	C139.088028,95.725922 138.047165,94.261429 137.070511,92.755295 
	C127.617676,78.177902 118.175613,63.593536 108.530380,48.383663 
	C106.393608,45.239521 104.256828,42.095375 101.962448,38.284012 
	C100.367821,36.162300 98.773201,34.040585 97.046707,31.226046 
	C95.487961,28.761637 93.929207,26.297228 92.168953,23.189980 
	C90.977852,21.413622 89.786758,19.637266 88.166260,17.255333 
	C85.932732,15.148595 86.162819,9.914035 79.888069,11.630135 
	C81.456810,14.355692 82.781624,16.657448 84.236969,19.623531 
	C85.782639,21.825674 87.328300,24.027817 89.033279,26.887077 
	C90.667206,29.302214 92.301125,31.717348 94.121185,34.766102 
	C95.357529,36.532784 96.593872,38.299461 97.914856,40.776276 
	C100.559807,44.654922 103.204758,48.533566 105.994736,53.067589 
	C108.395706,56.831532 110.753731,60.623707 113.205574,64.354218 
	C121.077927,76.332100 128.984955,88.287186 137.000687,100.915436 
	C138.597687,103.309708 140.194687,105.703972 142.019272,108.731857 
	C143.284210,110.514694 144.549164,112.297539 145.984940,114.755066 
	C147.556519,117.060760 149.128098,119.366463 150.870010,122.292450 
	C152.220062,124.249428 153.570129,126.206413 155.073700,128.814728 
	C156.341370,130.633743 157.609055,132.452774 158.995026,134.909622 
M169.107666,97.733788 
	C170.381531,99.538269 171.655411,101.342751 173.075424,103.799942 
	C174.356766,105.598236 175.638107,107.396538 177.069138,109.861900 
	C178.756653,112.350113 180.444183,114.838318 182.275497,117.538559 
	C186.242935,111.462082 181.386063,108.530899 178.934143,104.198265 
	C177.940872,102.802612 176.947601,101.406960 175.793381,99.345871 
	C174.333252,97.252632 172.873123,95.159386 171.202515,92.493538 
	C169.836502,90.572891 168.470505,88.652252 167.016357,86.057739 
	C165.150070,83.308304 163.283783,80.558868 161.020981,77.214554 
	C153.519257,65.754082 146.017532,54.293621 138.242706,42.168251 
	C136.167114,39.109917 134.091507,36.051582 131.851532,32.345905 
	C130.592743,30.557571 129.333954,28.769238 127.906975,26.309858 
	C126.240257,23.883635 124.573540,21.457411 122.762909,18.374489 
	C121.242348,16.223110 119.721786,14.071733 117.894203,11.273346 
	C115.716637,8.195269 114.774887,3.303221 108.616035,5.399671 
	C110.433929,8.065143 112.138016,10.563754 114.063644,13.699593 
	C115.327293,15.482889 116.590942,17.266186 118.018806,19.723024 
	C119.685066,22.146669 121.351334,24.570314 123.149406,27.656757 
	C124.664810,29.804115 126.180206,31.951473 127.900284,34.774380 
	C129.803131,37.556938 131.705994,40.339497 133.835922,43.803028 
	C142.131653,56.385712 150.427399,68.968399 158.938080,82.169357 
	C161.251404,85.539520 163.564713,88.909676 165.981171,92.920212 
	C166.975571,94.306351 167.969955,95.692482 169.107666,97.733788 
M167.048996,120.814880 
	C168.029968,122.218636 169.010941,123.622391 170.137390,125.705269 
	C171.578339,127.833046 173.019287,129.960815 174.574066,132.256668 
	C178.995102,128.055450 176.086685,125.489334 173.069580,122.221657 
	C171.735031,120.105537 170.400482,117.989418 168.894409,115.210457 
	C166.579208,113.137550 164.264008,111.064636 162.047058,108.295563 
	C160.515991,104.776520 159.213470,101.128838 157.340988,97.801949 
	C156.595154,96.476776 154.588913,95.860992 153.006927,94.148537 
	C151.539352,90.753281 150.498230,87.085068 148.530121,84.010178 
	C140.150146,70.917732 131.495789,58.000904 122.784386,44.352303 
	C120.454453,40.902603 118.124519,37.452904 115.640480,33.359131 
	C113.913673,30.843441 112.186874,28.327753 110.196899,25.162159 
	C108.528648,22.746452 106.860397,20.330746 105.015884,17.243235 
	C103.364265,14.820784 101.712646,12.398332 99.883278,9.278376 
	C98.172890,6.517179 96.711456,3.167967 92.195862,6.212243 
	C93.447128,7.936007 94.592300,9.513607 95.925117,11.764481 
	C97.588356,14.183919 99.251595,16.603359 101.077278,19.699663 
	C103.014549,22.538189 104.951813,25.376713 107.052048,28.870337 
	C108.672859,31.301203 110.293671,33.732067 112.155128,36.793022 
	C114.068550,39.539177 115.981964,42.285328 118.060188,45.711201 
	C128.047928,61.237968 137.992996,76.792671 148.102600,92.239670 
	C148.931381,93.505997 150.880280,94.039223 152.008865,95.669708 
	C154.555710,100.149559 157.065659,104.651703 159.729736,109.060715 
	C159.913483,109.364830 161.246689,108.974411 161.772522,109.703491 
	C163.492218,113.193779 165.211899,116.684067 167.048996,120.814880 
M183.977280,86.161751 
	C182.344376,83.703545 180.711456,81.245338 178.937210,78.124802 
	C177.041336,75.373978 175.145447,72.623154 173.066223,69.196365 
	C165.657394,58.131462 158.248566,47.066555 150.823914,35.322357 
	C149.165558,32.883492 147.507187,30.444626 145.695511,27.348564 
	C143.756409,24.565973 141.817291,21.783381 139.716599,18.340485 
	C136.423157,14.293893 135.232147,7.766558 127.308487,8.206531 
	C130.028458,12.110353 132.446075,15.580240 135.028900,19.726843 
	C136.896240,22.492710 138.763580,25.258579 140.909653,28.680069 
	C142.594177,31.123175 144.278702,33.566280 146.140030,36.685509 
	C154.207825,48.886871 162.275604,61.088230 170.654800,73.934082 
	C173.416718,78.004036 176.178650,82.073990 179.041855,86.734688 
	C179.637512,87.506622 180.233170,88.278557 181.008163,89.732536 
	C182.908936,92.586197 184.809708,95.439857 187.296143,99.172783 
	C188.817764,93.415100 187.794510,89.728455 183.977280,86.161751 
M33.827599,59.781601 
	C40.532310,49.519623 47.237026,39.257641 54.271263,28.402132 
	C56.653061,25.203413 59.034859,22.004694 61.416656,18.805977 
	C60.717884,18.284863 60.019112,17.763748 59.320339,17.242634 
	C55.493652,21.809645 51.666965,26.376657 47.281036,31.302595 
	C42.157784,39.121796 37.034534,46.940994 31.315487,55.118061 
	C27.392096,60.020821 24.840929,65.462212 25.423437,72.336647 
	C28.039253,68.270546 30.655067,64.204453 33.827599,59.781601 
M179.715759,55.952030 
	C173.854233,47.302563 167.992722,38.653091 162.160202,29.282429 
	C159.435699,23.825888 155.039215,20.321857 149.154144,18.458466 
	C151.696655,21.994591 154.239182,25.530716 156.912720,29.771090 
	C164.553360,40.982811 172.193985,52.194534 179.981583,64.056183 
	C182.079636,67.168961 184.177704,70.281738 186.275757,73.394516 
	C186.898575,73.037720 187.521393,72.680916 188.144211,72.324120 
	C185.489395,67.023476 182.834595,61.722836 179.715759,55.952030 
M106.498154,168.967346 
	C116.199730,169.199402 125.881378,169.314072 134.960953,164.348618 
	C115.244377,164.348618 95.817101,164.348618 75.792839,164.348618 
	C85.607964,169.413513 95.552414,169.201065 106.498154,168.967346 
M43.151695,139.831512 
	C43.737682,141.297348 44.323666,142.763199 44.909653,144.229034 
	C45.502037,144.200348 46.094425,144.171661 46.686810,144.142975 
	C47.276035,141.519577 47.865257,138.896164 48.454483,136.272751 
	C47.900452,136.077225 47.346424,135.881699 46.792393,135.686157 
	C45.717327,136.857620 44.642262,138.029099 43.151695,139.831512 
z"/>
<path fill="#CB284F" opacity="1.000000" stroke="none" 
	d="
M96.476402,55.807236 
	C107.970505,73.632271 119.464607,91.457306 130.657242,109.668152 
	C129.163513,110.400146 127.971245,110.746330 126.324875,111.095200 
	C113.318939,111.093178 100.766731,111.040794 88.215729,111.140533 
	C86.534111,111.153893 84.858597,111.935822 83.025986,112.027878 
	C81.860260,111.111603 80.848816,110.529305 79.837372,109.947006 
	C86.069313,100.049225 92.278351,90.136932 98.540848,80.258530 
	C103.090019,73.082733 103.121559,73.102730 97.000389,65.880135 
	C90.242462,75.870537 83.529465,85.794502 76.150650,95.851601 
	C74.522491,95.600899 73.560143,95.217072 72.597809,94.833252 
	C79.131569,84.600929 85.602646,74.327621 92.246178,64.167076 
	C93.775993,61.827396 94.468315,59.857338 92.586319,57.331379 
	C94.089478,56.592297 95.282936,56.199768 96.476402,55.807236 
M96.607437,106.253983 
	C105.273758,106.253983 113.940071,106.253983 122.616081,106.253983 
	C120.496895,98.505859 116.005295,95.707634 108.790688,96.842239 
	C105.868011,97.301880 102.812706,96.918068 99.817757,96.918381 
	C92.759407,96.919113 90.561745,98.721977 88.630844,106.254036 
	C91.004532,106.254036 93.327644,106.254036 96.607437,106.253983 
M104.586014,91.980408 
	C107.604675,91.980408 110.623337,91.980408 114.349457,91.980408 
	C111.061653,86.923271 108.352921,82.756828 105.392548,78.203331 
	C102.376305,83.013237 99.724281,87.242340 96.753090,91.980408 
	C99.697792,91.980408 101.684853,91.980408 104.586014,91.980408 
z"/>
<path fill="#BD264E" opacity="1.000000" stroke="none" 
	d="
M126.778976,111.092522 
	C127.971245,110.746330 129.163513,110.400146 130.727905,110.011246 
	C133.759583,113.977936 136.419144,117.987343 139.031677,122.684509 
	C138.241760,124.505089 137.498871,125.637901 136.381561,126.482437 
	C134.217926,126.025032 132.429550,125.718529 130.639435,125.707993 
	C112.426476,125.600723 94.213242,125.541664 75.994583,125.141968 
	C74.935196,123.521530 73.881302,122.228241 72.827408,120.934952 
	C74.977318,117.392426 77.127235,113.849907 79.557266,110.127197 
	C80.848816,110.529305 81.860260,111.111603 82.957321,112.365448 
	C81.588310,115.480011 80.133682,117.923019 78.595383,120.506546 
	C96.875259,120.506546 114.429718,120.506546 132.431854,120.506546 
	C130.335739,117.015785 128.557358,114.054153 126.778976,111.092522 
z"/>
<path fill="#C9274F" opacity="1.000000" stroke="none" 
	d="
M108.730476,49.011162 
	C118.175613,63.593536 127.617676,78.177902 137.070511,92.755295 
	C138.047165,94.261429 139.088028,95.725922 139.842102,97.602707 
	C138.682953,98.747482 137.780777,99.499275 136.878616,100.251068 
	C128.984955,88.287186 121.077927,76.332100 113.205574,64.354218 
	C110.753731,60.623707 108.395706,56.831532 105.976669,52.384895 
	C106.882561,50.805187 107.806519,49.908176 108.730476,49.011162 
z"/>
<path fill="#C02A52" opacity="1.000000" stroke="none" 
	d="
M152.308716,94.913086 
	C150.880280,94.039223 148.931381,93.505997 148.102600,92.239670 
	C137.992996,76.792671 128.047928,61.237968 118.398415,45.361618 
	C120.138298,45.014679 121.539948,45.017319 122.941605,45.019962 
	C131.495789,58.000904 140.150146,70.917732 148.530121,84.010178 
	C150.498230,87.085068 151.539352,90.753281 152.869568,94.549049 
	C152.732208,94.949562 152.308716,94.913086 152.308716,94.913086 
z"/>
<path fill="#C12A51" opacity="1.000000" stroke="none" 
	d="
M96.347504,55.474201 
	C95.282936,56.199768 94.089478,56.592297 92.516495,56.991692 
	C91.037666,55.597034 89.938347,54.195515 88.564537,52.444046 
	C80.464401,64.833260 72.599663,76.862442 64.305008,88.773056 
	C63.241268,87.418869 62.607445,86.183250 61.973621,84.947632 
	C68.856316,74.253136 75.744278,63.562019 82.616241,52.860634 
	C83.688011,51.191608 84.686882,49.475769 86.084633,47.391666 
	C87.664436,46.653687 88.879066,46.305622 90.093704,45.957558 
	C92.135338,49.018761 94.176979,52.079960 96.347504,55.474201 
z"/>
<path fill="#5A3770" opacity="1.000000" stroke="none" 
	d="
M105.999077,168.967346 
	C95.552414,169.201065 85.607964,169.413513 75.792839,164.348618 
	C95.817101,164.348618 115.244377,164.348618 134.960953,164.348618 
	C125.881378,169.314072 116.199730,169.199402 105.999077,168.967346 
z"/>
<path fill="#AD2E58" opacity="1.000000" stroke="none" 
	d="
M78.027466,42.006420 
	C69.236122,55.602680 60.444771,69.198944 51.221210,82.643997 
	C50.142681,81.306969 49.496361,80.121140 48.850040,78.935318 
	C56.719646,66.752922 64.589256,54.570522 73.154449,42.195587 
	C75.242500,42.004173 76.634987,42.005299 78.027466,42.006420 
z"/>
<path fill="#AF2E57" opacity="1.000000" stroke="none" 
	d="
M158.723129,81.551086 
	C150.427399,68.968399 142.131653,56.385712 134.212616,43.426342 
	C135.898148,42.977489 137.206970,42.905323 138.515808,42.833153 
	C146.017532,54.293621 153.519257,65.754082 160.880203,77.706772 
	C160.067322,79.316345 159.395218,80.433716 158.723129,81.551086 
z"/>
<path fill="#903160" opacity="1.000000" stroke="none" 
	d="
M170.343399,73.289589 
	C162.275604,61.088230 154.207825,48.886871 146.458237,36.345116 
	C148.130875,36.003696 149.485321,36.002670 150.839752,36.001648 
	C158.248566,47.066555 165.657394,58.131462 172.843567,69.758087 
	C171.861755,71.309731 171.102570,72.299660 170.343399,73.289589 
z"/>
<path fill="#8F3261" opacity="1.000000" stroke="none" 
	d="
M39.706329,66.864334 
	C46.714764,56.093319 53.723198,45.322300 61.310524,34.268944 
	C63.578037,33.653172 65.266655,33.319736 66.955276,32.986305 
	C58.533245,45.951660 50.111214,58.917015 41.365520,71.633972 
	C40.596680,69.878487 40.151501,68.371414 39.706329,66.864334 
z"/>
<path fill="#87295B" opacity="1.000000" stroke="none" 
	d="
M126.995468,154.020355 
	C112.971344,154.089386 98.947212,154.158417 84.419357,153.798981 
	C83.276024,152.277252 82.636406,151.183990 82.458923,150.004395 
	C98.282150,149.975784 113.643250,150.033493 128.950134,150.414062 
	C128.262421,151.831406 127.628944,152.925873 126.995468,154.020355 
z"/>
<path fill="#65336A" opacity="1.000000" stroke="none" 
	d="
M179.834625,63.406258 
	C172.193985,52.194534 164.553360,40.982811 157.240814,29.404022 
	C159.089661,29.359182 160.610428,29.681406 162.131195,30.003628 
	C167.992722,38.653091 173.854233,47.302563 179.902069,56.687813 
	C180.003799,59.417816 179.919205,61.412037 179.834625,63.406258 
z"/>
<path fill="#64346C" opacity="1.000000" stroke="none" 
	d="
M53.941738,28.995663 
	C47.237026,39.257641 40.532310,49.519623 33.223282,59.711357 
	C32.383076,58.014137 32.147179,56.387169 31.911285,54.760197 
	C37.034534,46.940994 42.157784,39.121796 47.926285,31.107738 
	C50.361603,30.273809 52.151672,29.634737 53.941738,28.995663 
z"/>
<path fill="#942B5A" opacity="1.000000" stroke="none" 
	d="
M142.257141,127.119659 
	C144.468353,130.496994 146.679565,133.874329 148.834961,137.873856 
	C147.859695,139.329391 146.940247,140.162735 145.668243,140.768494 
	C141.543259,140.308472 137.770844,140.076035 134.037720,139.513977 
	C134.387497,137.909256 134.697952,136.634186 135.421692,135.268814 
	C137.560394,135.080399 139.285858,134.982269 141.385193,134.862869 
	C140.671997,133.342758 140.197723,132.331894 139.895065,130.947769 
	C140.796829,129.422897 141.526993,128.271271 142.257141,127.119659 
z"/>
<path fill="#823364" opacity="1.000000" stroke="none" 
	d="
M67.226242,32.781059 
	C65.266655,33.319736 63.578037,33.653172 61.517570,33.994148 
	C63.194981,30.766682 65.244240,27.531672 67.953232,24.136599 
	C70.425865,22.949749 72.238754,21.922962 74.051643,20.896175 
	C75.661026,23.149015 78.228149,25.120598 76.096504,28.728790 
	C75.930840,29.034163 75.967827,28.984570 75.967827,28.984570 
	C74.580841,28.343254 73.193863,27.701941 71.374710,26.860800 
	C70.199844,28.592417 68.848526,30.584112 67.226242,32.781059 
z"/>
<path fill="#A12A57" opacity="1.000000" stroke="none" 
	d="
M78.282303,41.848980 
	C76.634987,42.005299 75.242500,42.004173 73.432343,42.004211 
	C75.531883,38.287575 77.663681,34.464622 76.168938,29.345835 
	C75.967827,28.984570 75.930840,29.034163 75.904968,29.054516 
	C81.001884,29.492767 82.160423,34.236351 84.790810,37.928871 
	C83.795296,39.422012 82.865509,40.288460 81.935730,41.154907 
	C81.323029,40.698425 80.710335,40.241947 80.027451,39.733173 
	C79.695686,40.169136 79.116409,40.930336 78.282303,41.848980 
z"/>
<path fill="#942B5A" opacity="1.000000" stroke="none" 
	d="
M61.880608,137.954620 
	C63.401760,135.430878 64.922913,132.907135 67.081757,130.228165 
	C68.891579,130.409454 70.063705,130.745956 71.125137,131.449890 
	C70.428925,133.216965 68.221909,135.055588 72.008842,135.593079 
	C73.061630,136.605301 74.059212,137.310898 75.018570,138.438202 
	C71.796654,139.310394 68.612976,139.760895 65.105072,140.071854 
	C63.814102,139.273087 62.847355,138.613861 61.880608,137.954620 
z"/>
<path fill="#5F336C" opacity="1.000000" stroke="none" 
	d="
M66.016602,154.041275 
	C61.624714,154.291077 57.012753,155.688889 53.067177,151.229156 
	C54.478119,149.041931 55.971947,146.726212 57.865852,144.489624 
	C59.182571,145.396133 60.099216,146.223526 60.929688,147.386566 
	C59.481144,151.743011 63.196842,148.955582 64.030258,150.398483 
	C64.713669,151.828217 65.365135,152.934738 66.016602,154.041275 
z"/>
<path fill="#A82B57" opacity="1.000000" stroke="none" 
	d="
M152.158783,95.291397 
	C152.308716,94.913086 152.732208,94.949562 152.944336,94.935913 
	C154.588913,95.860992 156.595154,96.476776 157.340988,97.801949 
	C159.213470,101.128838 160.515991,104.776520 162.018600,108.618515 
	C161.990143,108.941467 162.045334,108.906982 162.045334,108.906982 
	C161.246689,108.974411 159.913483,109.364830 159.729736,109.060715 
	C157.065659,104.651703 154.555710,100.149559 152.158783,95.291397 
z"/>
<path fill="#9D315E" opacity="1.000000" stroke="none" 
	d="
M48.568169,79.111343 
	C49.496361,80.121140 50.142681,81.306969 50.927292,82.816772 
	C48.610565,87.058960 46.155544,90.977173 43.339672,94.668427 
	C42.610069,92.839203 42.241318,91.236946 41.872566,89.634682 
	C44.010475,86.185577 46.148384,82.736473 48.568169,79.111343 
z"/>
<path fill="#64346C" opacity="1.000000" stroke="none" 
	d="
M134.863693,19.050127 
	C132.446075,15.580240 130.028458,12.110353 127.308487,8.206531 
	C135.232147,7.766558 136.423157,14.293893 139.379791,18.670055 
	C137.649902,19.016459 136.256790,19.033293 134.863693,19.050127 
z"/>
<path fill="#7E3366" opacity="1.000000" stroke="none" 
	d="
M170.499100,73.611832 
	C171.102570,72.299660 171.861755,71.309731 172.935242,70.096069 
	C175.145447,72.623154 177.041336,75.373978 178.984680,78.916351 
	C179.001633,81.853256 178.971100,83.998596 178.940567,86.143944 
	C176.178650,82.073990 173.416718,78.004036 170.499100,73.611832 
z"/>
<path fill="#5B2F69" opacity="1.000000" stroke="none" 
	d="
M32.096970,86.046143 
	C29.588491,89.807785 27.080013,93.569435 24.571533,97.331078 
	C23.963894,97.136024 23.356253,96.940971 22.748613,96.745918 
	C23.331289,94.177002 23.532707,91.434738 24.600412,89.086342 
	C25.741840,86.575790 27.700302,84.436714 29.742126,82.291290 
	C30.820406,83.646774 31.458687,84.846458 32.096970,86.046143 
z"/>
<path fill="#BB2C54" opacity="1.000000" stroke="none" 
	d="
M108.630432,48.697414 
	C107.806519,49.908176 106.882561,50.805187 105.904152,52.057205 
	C103.204758,48.533566 100.559807,44.654922 98.217506,40.274593 
	C99.720123,39.499020 100.920090,39.225128 102.120056,38.951233 
	C104.256828,42.095375 106.393608,45.239521 108.630432,48.697414 
z"/>
<path fill="#5A3770" opacity="1.000000" stroke="none" 
	d="
M31.613386,54.939129 
	C32.147179,56.387169 32.383076,58.014137 32.944927,59.889732 
	C30.655067,64.204453 28.039253,68.270546 25.423437,72.336647 
	C24.840929,65.462212 27.392096,60.020821 31.613386,54.939129 
z"/>
<path fill="#B42E57" opacity="1.000000" stroke="none" 
	d="
M122.862991,44.686134 
	C121.539948,45.017319 120.138298,45.014679 118.316010,45.021759 
	C115.981964,42.285328 114.068550,39.539177 112.207558,36.199440 
	C113.438187,35.071640 114.616386,34.537422 115.794586,34.003204 
	C118.124519,37.452904 120.454453,40.902603 122.862991,44.686134 
z"/>
<path fill="#5A3770" opacity="1.000000" stroke="none" 
	d="
M162.145691,29.643028 
	C160.610428,29.681406 159.089661,29.359182 157.175293,29.051899 
	C154.239182,25.530716 151.696655,21.994591 149.154144,18.458466 
	C155.039215,20.321857 159.435699,23.825888 162.145691,29.643028 
z"/>
<path fill="#A2315D" opacity="1.000000" stroke="none" 
	d="
M158.830597,81.860222 
	C159.395218,80.433716 160.067322,79.316345 161.078461,78.004211 
	C163.283783,80.558868 165.150070,83.308304 166.997589,86.797607 
	C166.611893,89.118263 166.244965,90.699051 165.878021,92.279831 
	C163.564713,88.909676 161.251404,85.539520 158.830597,81.860222 
z"/>
<path fill="#B42E57" opacity="1.000000" stroke="none" 
	d="
M61.692123,85.137543 
	C62.607445,86.183250 63.241268,87.418869 64.011826,88.975403 
	C62.350540,92.128830 60.552513,94.961342 58.148785,97.797668 
	C56.645203,97.182884 55.747318,96.564285 54.849434,95.945686 
	C57.036503,92.406273 59.223564,88.866859 61.692123,85.137543 
z"/>
<path fill="#5B2F69" opacity="1.000000" stroke="none" 
	d="
M153.908142,146.006882 
	C155.217773,147.663177 156.527405,149.319473 159.022186,152.474640 
	C154.474350,153.194290 151.171890,153.716873 147.436401,153.802383 
	C147.001663,152.913849 146.999924,152.462387 146.999603,151.690125 
	C147.002670,150.941574 147.004318,150.513840 147.352234,150.001953 
	C148.725586,149.404434 149.752655,148.891052 150.930115,148.060852 
	C152.023056,147.164993 152.965591,146.585938 153.908142,146.006882 
z"/>
<path fill="#5A3770" opacity="1.000000" stroke="none" 
	d="
M54.106499,28.698898 
	C52.151672,29.634737 50.361603,30.273809 48.205906,30.928276 
	C51.666965,26.376657 55.493652,21.809645 59.320339,17.242634 
	C60.019112,17.763748 60.717884,18.284863 61.416656,18.805977 
	C59.034859,22.004694 56.653061,25.203413 54.106499,28.698898 
z"/>
<path fill="#C12A51" opacity="1.000000" stroke="none" 
	d="
M72.344711,95.039413 
	C73.560143,95.217072 74.522491,95.600899 75.870209,96.041306 
	C74.255775,99.524818 72.255966,102.951759 69.776917,106.515182 
	C68.492378,105.681702 67.687080,104.711739 66.881790,103.741783 
	C68.618401,100.909714 70.355011,98.077652 72.344711,95.039413 
z"/>
<path fill="#883162" opacity="1.000000" stroke="none" 
	d="
M41.586029,89.836014 
	C42.241318,91.236946 42.610069,92.839203 43.044987,94.848450 
	C41.321018,98.161110 39.530884,101.066803 37.300125,103.824783 
	C36.174496,102.582146 35.489491,101.487198 34.804485,100.392258 
	C36.969490,96.940620 39.134495,93.488991 41.586029,89.836014 
z"/>
<path fill="#5E3C74" opacity="1.000000" stroke="none" 
	d="
M179.908112,63.731220 
	C179.919205,61.412037 180.003799,59.417816 180.134079,56.922897 
	C182.834595,61.722836 185.489395,67.023476 188.144211,72.324120 
	C187.521393,72.680916 186.898575,73.037720 186.275757,73.394516 
	C184.177704,70.281738 182.079636,67.168961 179.908112,63.731220 
z"/>
<path fill="#A2315D" opacity="1.000000" stroke="none" 
	d="
M138.379257,42.500702 
	C137.206970,42.905323 135.898148,42.977489 134.099075,43.085854 
	C131.705994,40.339497 129.803131,37.556938 128.175369,34.408867 
	C129.638931,33.693325 130.827423,33.343292 132.015900,32.993252 
	C134.091507,36.051582 136.167114,39.109917 138.379257,42.500702 
z"/>
<path fill="#7A3467" opacity="1.000000" stroke="none" 
	d="
M134.946289,19.388485 
	C136.256790,19.033293 137.649902,19.016459 139.460602,19.000206 
	C141.817291,21.783381 143.756409,24.565973 145.340515,27.675449 
	C143.533997,28.009706 142.082458,28.017075 140.630920,28.024445 
	C138.763580,25.258579 136.896240,22.492710 134.946289,19.388485 
z"/>
<path fill="#7A3467" opacity="1.000000" stroke="none" 
	d="
M32.383141,85.879570 
	C31.458687,84.846458 30.820406,83.646774 30.042736,82.121994 
	C31.701061,78.889183 33.498775,75.981468 35.622528,73.292099 
	C36.340324,75.120888 36.732075,76.731339 37.123825,78.341782 
	C35.638992,80.798859 34.154152,83.255928 32.383141,85.879570 
z"/>
<path fill="#AD2E58" opacity="1.000000" stroke="none" 
	d="
M71.235832,131.082474 
	C70.063705,130.745956 68.891579,130.409454 67.353729,130.033493 
	C68.741379,127.083176 70.494759,124.172310 72.537773,121.098190 
	C73.881302,122.228241 74.935196,123.521530 75.685799,125.316406 
	C74.000282,127.572823 72.618057,129.327652 71.235832,131.082474 
z"/>
<path fill="#9D315E" opacity="1.000000" stroke="none" 
	d="
M45.009644,111.027161 
	C46.777721,108.072983 48.545803,105.118813 50.753250,102.313744 
	C51.876583,103.347893 52.560543,104.232925 53.244503,105.117958 
	C51.410561,108.402901 49.576614,111.687836 47.399036,114.831207 
	C46.373482,113.468803 45.691563,112.247986 45.009644,111.027161 
z"/>
<path fill="#5E3C74" opacity="1.000000" stroke="none" 
	d="
M179.083466,104.833710 
	C181.386063,108.530899 186.242935,111.462082 182.275497,117.538559 
	C180.444183,114.838318 178.756653,112.350113 177.142517,109.206039 
	C177.838425,107.311356 178.460953,106.072533 179.083466,104.833710 
z"/>
<path fill="#8F3261" opacity="1.000000" stroke="none" 
	d="
M122.906822,19.031189 
	C124.573540,21.457411 126.240257,23.883635 127.569473,26.651627 
	C125.827187,26.993582 124.422386,26.993771 123.017593,26.993958 
	C121.351334,24.570314 119.685066,22.146669 118.357834,19.373398 
	C120.100182,19.026241 121.503502,19.028715 122.906822,19.031189 
z"/>
<path fill="#C02A52" opacity="1.000000" stroke="none" 
	d="
M136.939651,100.583252 
	C137.780777,99.499275 138.682953,98.747482 139.954163,97.944321 
	C141.912521,100.338837 143.501831,102.784714 144.960632,105.650146 
	C143.817307,106.745895 142.804504,107.422066 141.791702,108.098236 
	C140.194687,105.703972 138.597687,103.309708 136.939651,100.583252 
z"/>
<path fill="#903160" opacity="1.000000" stroke="none" 
	d="
M106.889084,28.215239 
	C104.951813,25.376713 103.014549,22.538189 101.370628,19.351471 
	C102.840034,18.640533 104.016090,18.277786 105.192146,17.915039 
	C106.860397,20.330746 108.528648,22.746452 109.983208,25.621202 
	C108.809372,26.791910 107.849228,27.503574 106.889084,28.215239 
z"/>
<path fill="#772A5F" opacity="1.000000" stroke="none" 
	d="
M81.996796,150.090714 
	C82.636406,151.183990 83.276024,152.277252 83.960587,153.695679 
	C80.306297,154.090576 76.607063,154.160309 72.426056,153.786377 
	C71.628250,152.258514 71.312225,151.174286 71.447815,150.003708 
	C75.265221,149.975128 78.631004,150.032913 81.996796,150.090714 
z"/>
<path fill="#7A3467" opacity="1.000000" stroke="none" 
	d="
M105.104019,17.579136 
	C104.016090,18.277786 102.840034,18.640533 101.289406,19.013039 
	C99.251595,16.603359 97.588356,14.183919 96.208801,11.402081 
	C97.681992,10.685081 98.871513,10.330482 100.061028,9.975881 
	C101.712646,12.398332 103.364265,14.820784 105.104019,17.579136 
z"/>
<path fill="#A2315D" opacity="1.000000" stroke="none" 
	d="
M106.970566,28.542788 
	C107.849228,27.503574 108.809372,26.791910 110.114792,25.946156 
	C112.186874,28.327753 113.913673,30.843441 115.717529,33.681168 
	C114.616386,34.537422 113.438187,35.071640 112.087234,35.884396 
	C110.293671,33.732067 108.672859,31.301203 106.970566,28.542788 
z"/>
<path fill="#883162" opacity="1.000000" stroke="none" 
	d="
M140.770294,28.352257 
	C142.082458,28.017075 143.533997,28.009706 145.417175,28.004047 
	C147.507187,30.444626 149.165558,32.883492 150.831833,35.662003 
	C149.485321,36.002670 148.130875,36.003696 146.369843,36.007053 
	C144.278702,33.566280 142.594177,31.123175 140.770294,28.352257 
z"/>
<path fill="#9D315E" opacity="1.000000" stroke="none" 
	d="
M93.935051,34.132484 
	C92.301125,31.717348 90.667206,29.302214 89.145035,26.255209 
	C90.294678,25.026501 91.332573,24.429659 92.370461,23.832819 
	C93.929207,26.297228 95.487961,28.761637 96.803352,31.703270 
	C95.685013,32.831154 94.810036,33.481819 93.935051,34.132484 
z"/>
<path fill="#5F336C" opacity="1.000000" stroke="none" 
	d="
M184.050507,86.849701 
	C187.794510,89.728455 188.817764,93.415100 187.296143,99.172783 
	C184.809708,95.439857 182.908936,92.586197 181.263947,89.349152 
	C182.363312,88.260414 183.206909,87.555061 184.050507,86.849701 
z"/>
<path fill="#AD2E58" opacity="1.000000" stroke="none" 
	d="
M57.696014,117.871765 
	C59.234406,115.298454 60.772797,112.725151 62.765137,110.311584 
	C63.838905,111.713318 64.458717,112.955315 65.078537,114.197304 
	C63.663334,116.542809 62.248135,118.888321 60.481499,121.068222 
	C59.318714,119.892326 58.507366,118.882050 57.696014,117.871765 
z"/>
<path fill="#5F336C" opacity="1.000000" stroke="none" 
	d="
M113.842110,13.062365 
	C112.138016,10.563754 110.433929,8.065143 108.616035,5.399671 
	C114.774887,3.303221 115.716637,8.195269 117.696960,11.744734 
	C116.280518,12.498203 115.061317,12.780284 113.842110,13.062365 
z"/>
<path fill="#6D3167" opacity="1.000000" stroke="none" 
	d="
M34.519764,100.609558 
	C35.489491,101.487198 36.174496,102.582146 37.020203,104.031197 
	C35.668560,106.857521 34.156208,109.329735 32.313328,111.641083 
	C31.300999,110.272652 30.619196,109.065102 29.937393,107.857544 
	C31.369942,105.513977 32.802494,103.170410 34.519764,100.609558 
z"/>
<path fill="#772A5F" opacity="1.000000" stroke="none" 
	d="
M127.445038,154.120636 
	C127.628944,152.925873 128.262421,151.831406 129.397736,150.330688 
	C132.935715,149.980347 135.971878,150.036240 138.970154,150.431183 
	C138.620956,151.853821 138.309647,152.937424 137.998322,154.021027 
	C134.630417,154.087662 131.262512,154.154297 127.445038,154.120636 
z"/>
<path fill="#5F336C" opacity="1.000000" stroke="none" 
	d="
M173.180069,122.922890 
	C176.086685,125.489334 178.995102,128.055450 174.574066,132.256668 
	C173.019287,129.960815 171.578339,127.833046 170.218185,125.063431 
	C171.259338,123.922020 172.219711,123.422455 173.180069,122.922890 
z"/>
<path fill="#823364" opacity="1.000000" stroke="none" 
	d="
M44.735901,111.217438 
	C45.691563,112.247986 46.373482,113.468803 47.120167,115.042145 
	C46.102470,117.192619 45.020008,118.990578 43.353516,120.847565 
	C41.789383,120.245308 40.809280,119.584015 39.829178,118.922722 
	C41.373505,116.417717 42.917831,113.912720 44.735901,111.217438 
z"/>
<path fill="#883162" opacity="1.000000" stroke="none" 
	d="
M57.185043,126.414383 
	C55.299046,128.844284 53.413044,131.274170 51.527042,133.704071 
	C50.776123,133.266815 50.025204,132.829544 49.274284,132.392288 
	C50.574917,129.681534 51.875546,126.970787 53.802986,124.215881 
	C55.348209,124.919281 56.266628,125.666832 57.185043,126.414383 
z"/>
<path fill="#87295B" opacity="1.000000" stroke="none" 
	d="
M161.969482,108.966599 
	C164.264008,111.064636 166.579208,113.137550 168.828598,115.856934 
	C168.152390,117.727051 167.541992,118.950699 166.931595,120.174355 
	C165.211899,116.684067 163.492218,113.193779 161.908936,109.305237 
	C162.045334,108.906982 161.990143,108.941467 161.969482,108.966599 
z"/>
<path fill="#B42E57" opacity="1.000000" stroke="none" 
	d="
M82.047989,41.482407 
	C82.865509,40.288460 83.795296,39.422012 84.869423,38.264481 
	C86.660599,40.408947 88.307442,42.844490 90.023994,45.618797 
	C88.879066,46.305622 87.664436,46.653687 86.131821,47.007088 
	C84.595978,45.278255 83.378120,43.544083 82.047989,41.482407 
z"/>
<path fill="#AD345D" opacity="1.000000" stroke="none" 
	d="
M53.568596,105.038574 
	C52.560543,104.232925 51.876583,103.347893 51.055573,102.146255 
	C52.043869,99.979965 53.169209,98.130287 54.571991,96.113144 
	C55.747318,96.564285 56.645203,97.182884 57.843369,97.935844 
	C56.726662,100.366531 55.309677,102.662857 53.568596,105.038574 
z"/>
<path fill="#AD345D" opacity="1.000000" stroke="none" 
	d="
M94.028122,34.449295 
	C94.810036,33.481819 95.685013,32.831154 96.869286,32.049683 
	C98.773201,34.040585 100.367821,36.162300 102.041252,38.617622 
	C100.920090,39.225128 99.720123,39.499020 98.175186,39.919525 
	C96.593872,38.299461 95.357529,36.532784 94.028122,34.449295 
z"/>
<path fill="#9D315E" opacity="1.000000" stroke="none" 
	d="
M154.920181,128.163391 
	C153.570129,126.206413 152.220062,124.249428 150.937256,121.621124 
	C151.708939,119.887009 152.413391,118.824226 153.117844,117.761444 
	C154.674866,119.962105 156.231888,122.162773 157.568390,124.837845 
	C156.538635,126.262619 155.729416,127.213005 154.920181,128.163391 
z"/>
<path fill="#672B63" opacity="1.000000" stroke="none" 
	d="
M73.969193,20.563423 
	C72.238754,21.922962 70.425865,22.949749 68.238419,23.966494 
	C67.751877,22.341909 67.572357,20.728371 67.548317,19.112520 
	C67.527390,17.706097 67.682068,16.297060 67.759148,14.889178 
	C68.296242,14.795638 68.833336,14.702098 69.370438,14.608557 
	C70.875870,16.482595 72.381302,18.356632 73.969193,20.563423 
z"/>
<path fill="#7A3467" opacity="1.000000" stroke="none" 
	d="
M153.942749,145.659042 
	C152.965591,146.585938 152.023056,147.164993 150.651337,147.860870 
	C148.821686,145.650497 147.421234,143.323303 146.020782,140.996094 
	C146.940247,140.162735 147.859695,139.329391 148.911469,138.210556 
	C150.688293,140.387115 152.332825,142.849152 153.942749,145.659042 
z"/>
<path fill="#9D315E" opacity="1.000000" stroke="none" 
	d="
M123.083496,27.325357 
	C124.422386,26.993771 125.827187,26.993582 127.653572,26.987148 
	C129.333954,28.769238 130.592743,30.557571 131.933716,32.669579 
	C130.827423,33.343292 129.638931,33.693325 128.073029,34.071095 
	C126.180206,31.951473 124.664810,29.804115 123.083496,27.325357 
z"/>
<path fill="#7A3467" opacity="1.000000" stroke="none" 
	d="
M113.952881,13.380980 
	C115.061317,12.780284 116.280518,12.498203 117.850479,12.068239 
	C119.721786,14.071733 121.242348,16.223110 122.834869,18.702839 
	C121.503502,19.028715 120.100182,19.026241 118.275726,19.036625 
	C116.590942,17.266186 115.327293,15.482889 113.952881,13.380980 
z"/>
<path fill="#823364" opacity="1.000000" stroke="none" 
	d="
M37.403473,78.145195 
	C36.732075,76.731339 36.340324,75.120888 35.906857,73.094955 
	C36.962479,70.852921 38.059814,69.026390 39.431740,67.032089 
	C40.151501,68.371414 40.596680,69.878487 41.068432,71.809280 
	C39.957714,74.138199 38.820419,76.043404 37.403473,78.145195 
z"/>
<path fill="#AD2E58" opacity="1.000000" stroke="none" 
	d="
M153.061371,117.440689 
	C152.413391,118.824226 151.708939,119.887009 150.852081,121.310974 
	C149.128098,119.366463 147.556519,117.060760 146.218170,114.272850 
	C147.416595,113.143791 148.381821,112.496948 149.347031,111.850105 
	C150.566315,113.606720 151.785614,115.363327 153.061371,117.440689 
z"/>
<path fill="#6D3167" opacity="1.000000" stroke="none" 
	d="
M84.106438,18.959202 
	C82.781624,16.657448 81.456810,14.355692 79.888069,11.630135 
	C86.162819,9.914035 85.932732,15.148595 87.993294,17.604774 
	C86.582367,18.289211 85.344398,18.624207 84.106438,18.959202 
z"/>
<path fill="#BB2C54" opacity="1.000000" stroke="none" 
	d="
M65.357132,114.006149 
	C64.458717,112.955315 63.838905,111.713318 63.068714,110.150414 
	C64.054062,107.927055 65.189781,106.024605 66.603645,103.931976 
	C67.687080,104.711739 68.492378,105.681702 69.579941,106.796097 
	C68.453384,109.232018 67.044556,111.523499 65.357132,114.006149 
z"/>
<path fill="#8C3A69" opacity="1.000000" stroke="none" 
	d="
M84.171707,19.291367 
	C85.344398,18.624207 86.582367,18.289211 88.207993,17.907562 
	C89.786758,19.637266 90.977852,21.413622 92.269707,23.511398 
	C91.332573,24.429659 90.294678,25.026501 89.065376,25.926651 
	C87.328300,24.027817 85.782639,21.825674 84.171707,19.291367 
z"/>
<path fill="#7E3366" opacity="1.000000" stroke="none" 
	d="
M61.015858,147.050934 
	C60.099216,146.223526 59.182571,145.396133 58.129944,144.284378 
	C59.093830,142.086700 60.193707,140.173401 61.587097,138.107361 
	C62.847355,138.613861 63.814102,139.273087 64.989044,140.400146 
	C63.803440,142.928970 62.409649,144.989960 61.015858,147.050934 
z"/>
<path fill="#7A3467" opacity="1.000000" stroke="none" 
	d="
M179.008804,104.515991 
	C178.460953,106.072533 177.838425,107.311356 177.067673,108.872505 
	C175.638107,107.396538 174.356766,105.598236 173.134995,103.163910 
	C174.114487,101.689018 175.034409,100.850159 175.954330,100.011299 
	C176.947601,101.406960 177.940872,102.802612 179.008804,104.515991 
z"/>
<path fill="#B42E57" opacity="1.000000" stroke="none" 
	d="
M149.246979,111.526390 
	C148.381821,112.496948 147.416595,113.143791 146.132751,113.935509 
	C144.549164,112.297539 143.284210,110.514694 141.905487,108.415047 
	C142.804504,107.422066 143.817307,106.745895 145.174652,105.935791 
	C146.728455,107.602127 147.937698,109.402397 149.246979,111.526390 
z"/>
<path fill="#5F336C" opacity="1.000000" stroke="none" 
	d="
M164.996033,135.994125 
	C166.828308,138.565567 170.382507,141.058212 165.106674,144.155411 
	C164.095932,142.675934 163.101608,141.220459 162.078629,139.080414 
	C163.031998,137.595276 164.014008,136.794708 164.996033,135.994125 
z"/>
<path fill="#883162" opacity="1.000000" stroke="none" 
	d="
M175.873856,99.678589 
	C175.034409,100.850159 174.114487,101.689018 173.061920,102.837555 
	C171.655411,101.342751 170.381531,99.538269 169.211807,97.057465 
	C170.014969,95.276138 170.713989,94.171135 171.413010,93.066139 
	C172.873123,95.159386 174.333252,97.252632 175.873856,99.678589 
z"/>
<path fill="#883162" opacity="1.000000" stroke="none" 
	d="
M154.996948,128.489059 
	C155.729416,127.213005 156.538635,126.262619 157.629730,125.171478 
	C159.163712,126.818741 160.415817,128.606750 161.404312,130.753235 
	C160.386032,132.165070 159.631378,133.218430 158.876724,134.271790 
	C157.609055,132.452774 156.341370,130.633743 154.996948,128.489059 
z"/>
<path fill="#7A3467" opacity="1.000000" stroke="none" 
	d="
M184.013885,86.505722 
	C183.206909,87.555061 182.363312,88.260414 181.174255,89.008133 
	C180.233170,88.278557 179.637512,87.506622 178.991211,86.439316 
	C178.971100,83.998596 179.001633,81.853256 179.055359,79.247520 
	C180.711456,81.245338 182.344376,83.703545 184.013885,86.505722 
z"/>
<path fill="#5E3C74" opacity="1.000000" stroke="none" 
	d="
M99.972153,9.627129 
	C98.871513,10.330482 97.681992,10.685081 96.114975,11.065445 
	C94.592300,9.513607 93.447128,7.936007 92.195862,6.212243 
	C96.711456,3.167967 98.172890,6.517179 99.972153,9.627129 
z"/>
<path fill="#7A3467" opacity="1.000000" stroke="none" 
	d="
M166.990295,120.494614 
	C167.541992,118.950699 168.152390,117.727051 168.914352,116.188354 
	C170.400482,117.989418 171.735031,120.105537 173.124817,122.572273 
	C172.219711,123.422455 171.259338,123.922020 170.145447,124.723862 
	C169.010941,123.622391 168.029968,122.218636 166.990295,120.494614 
z"/>
<path fill="#6D3167" opacity="1.000000" stroke="none" 
	d="
M39.547020,119.063736 
	C40.809280,119.584015 41.789383,120.245308 43.101974,121.039658 
	C42.339420,122.920578 41.244377,124.668449 39.604408,126.648407 
	C38.320488,125.781952 37.581501,124.683403 36.842514,123.584854 
	C37.649960,122.124825 38.457409,120.664787 39.547020,119.063736 
z"/>
<path fill="#9D315E" opacity="1.000000" stroke="none" 
	d="
M57.449684,126.222977 
	C56.266628,125.666832 55.348209,124.919281 54.093735,124.028076 
	C54.892105,122.002876 56.026535,120.121330 57.428490,118.055771 
	C58.507366,118.882050 59.318714,119.892326 60.220451,121.305679 
	C59.445335,123.149696 58.579830,124.590637 57.449684,126.222977 
z"/>
<path fill="#903160" opacity="1.000000" stroke="none" 
	d="
M171.307770,92.779839 
	C170.713989,94.171135 170.014969,95.276138 169.140152,96.729874 
	C167.969955,95.692482 166.975571,94.306351 165.929596,92.600021 
	C166.244965,90.699051 166.611893,89.118263 167.041656,87.134537 
	C168.470505,88.652252 169.836502,90.572891 171.307770,92.779839 
z"/>
<path fill="#5A3770" opacity="1.000000" stroke="none" 
	d="
M29.622665,108.036514 
	C30.619196,109.065102 31.300999,110.272652 32.028229,111.828766 
	C31.128733,113.828957 30.183809,115.480576 29.134401,117.314827 
	C26.316698,112.936127 26.316698,112.936127 29.622665,108.036514 
z"/>
<path fill="#672B63" opacity="1.000000" stroke="none" 
	d="
M138.426559,154.121841 
	C138.309647,152.937424 138.620956,151.853821 139.407471,150.347198 
	C142.257095,149.978165 144.631531,150.032120 147.005951,150.086090 
	C147.004318,150.513840 147.002670,150.941574 146.730133,151.810287 
	C145.968765,152.847366 145.478302,153.443497 144.987823,154.039612 
	C142.943481,154.100632 140.899124,154.161652 138.426559,154.121841 
z"/>
<path fill="#5B2F69" opacity="1.000000" stroke="none" 
	d="
M43.359444,139.516037 
	C44.642262,138.029099 45.717327,136.857620 46.792393,135.686157 
	C47.346424,135.881699 47.900452,136.077225 48.454483,136.272751 
	C47.865257,138.896164 47.276035,141.519577 46.686810,144.142975 
	C46.094425,144.171661 45.502037,144.200348 44.909653,144.229034 
	C44.323666,142.763199 43.737682,141.297348 43.359444,139.516037 
z"/>
<path fill="#7A3467" opacity="1.000000" stroke="none" 
	d="
M158.935883,134.590698 
	C159.631378,133.218430 160.386032,132.165070 161.485748,131.072250 
	C162.838211,132.470139 163.845612,133.907486 164.924515,135.669479 
	C164.014008,136.794708 163.031998,137.595276 162.002930,138.741547 
	C160.968948,137.694717 159.981979,136.302170 158.935883,134.590698 
z"/>
<path fill="#C45B7B" opacity="1.000000" stroke="none" 
	d="
M142.189575,126.833374 
	C141.526993,128.271271 140.796829,129.422897 139.629364,130.778961 
	C138.380035,129.579193 137.568008,128.174957 136.755997,126.770721 
	C137.498871,125.637901 138.241760,124.505089 139.162781,123.001053 
	C140.267929,123.935585 141.194962,125.241341 142.189575,126.833374 
z"/>
<path fill="#5E3C74" opacity="1.000000" stroke="none" 
	d="
M36.542580,123.794281 
	C37.581501,124.683403 38.320488,125.781952 39.406082,126.936249 
	C38.751869,128.633911 37.751045,130.275818 36.683910,132.026505 
	C32.251934,129.335373 34.363407,126.665245 36.542580,123.794281 
z"/>
<path fill="#672B63" opacity="1.000000" stroke="none" 
	d="
M70.996201,150.090073 
	C71.312225,151.174286 71.628250,152.258514 71.975327,153.682983 
	C70.289680,154.094025 68.572968,154.164825 66.436432,154.138443 
	C65.365135,152.934738 64.713669,151.828217 64.462433,150.318024 
	C66.907173,149.972931 68.951683,150.031494 70.996201,150.090073 
z"/>
<path fill="#5F336C" opacity="1.000000" stroke="none" 
	d="
M145.170502,154.156067 
	C145.478302,153.443497 145.968765,152.847366 146.728714,152.131088 
	C146.999924,152.462387 147.001663,152.913849 147.007278,153.704010 
	C146.458496,154.119308 145.905838,154.195908 145.170502,154.156067 
z"/>
<path fill="#FDF9FA" opacity="1.000000" stroke="none" 
	d="
M126.324875,111.095200 
	C128.557358,114.054153 130.335739,117.015785 132.431854,120.506546 
	C114.429718,120.506546 96.875259,120.506546 78.595383,120.506546 
	C80.133682,117.923019 81.588310,115.480011 83.111595,112.699425 
	C84.858597,111.935822 86.534111,111.153893 88.215729,111.140533 
	C100.766731,111.040794 113.318939,111.093178 126.324875,111.095200 
z"/>
<path fill="#FFFEFE" opacity="1.000000" stroke="none" 
	d="
M96.129097,106.254013 
	C93.327644,106.254036 91.004532,106.254036 88.630844,106.254036 
	C90.561745,98.721977 92.759407,96.919113 99.817757,96.918381 
	C102.812706,96.918068 105.868011,97.301880 108.790688,96.842239 
	C116.005295,95.707634 120.496895,98.505859 122.616081,106.253983 
	C113.940071,106.253983 105.273758,106.253983 96.129097,106.254013 
z"/>
<path fill="#FDF7F8" opacity="1.000000" stroke="none" 
	d="
M104.128960,91.980408 
	C101.684853,91.980408 99.697792,91.980408 96.753090,91.980408 
	C99.724281,87.242340 102.376305,83.013237 105.392548,78.203331 
	C108.352921,82.756828 111.061653,86.923271 114.349457,91.980408 
	C110.623337,91.980408 107.604675,91.980408 104.128960,91.980408 
z"/>
<path fill="#FFFEFE" opacity="1.000000" stroke="none" 
	d="
M136.381561,126.482445 
	C137.568008,128.174957 138.380035,129.579193 139.457748,131.152222 
	C140.197723,132.331894 140.671997,133.342758 141.385193,134.862869 
	C139.285858,134.982269 137.560394,135.080399 134.959702,135.179855 
	C115.075172,135.217880 96.065887,135.254578 76.639420,135.189301 
	C74.799377,135.153702 73.376503,135.220078 71.953636,135.286469 
	C68.221909,135.055588 70.428925,133.216965 71.125137,131.449890 
	C72.618057,129.327652 74.000282,127.572823 75.691299,125.643555 
	C94.213242,125.541664 112.426476,125.600723 130.639435,125.707993 
	C132.429550,125.718529 134.217926,126.025032 136.381561,126.482445 
z"/>
<path fill="#FBF9FA" opacity="1.000000" stroke="none" 
	d="
M71.447815,150.003708 
	C68.951683,150.031494 66.907173,149.972931 64.430481,149.994812 
	C63.196842,148.955582 59.481144,151.743011 60.929688,147.386566 
	C62.409649,144.989960 63.803440,142.928970 65.313263,140.539673 
	C68.612976,139.760895 71.796654,139.310394 75.328156,138.437866 
	C76.085571,138.066223 76.495171,138.116638 77.136314,138.489822 
	C78.765091,139.210663 80.161835,139.952530 81.559647,139.954544 
	C99.039146,139.979858 116.518799,139.897995 133.998413,139.843613 
	C137.770844,140.076035 141.543259,140.308472 145.668243,140.768494 
	C147.421234,143.323303 148.821686,145.650497 150.500931,148.177689 
	C149.752655,148.891052 148.725586,149.404434 147.352234,150.001953 
	C144.631531,150.032120 142.257095,149.978165 139.445358,150.008179 
	C135.971878,150.036240 132.935715,149.980347 129.451950,150.007812 
	C113.643250,150.033493 98.282150,149.975784 82.458923,150.004395 
	C78.631004,150.032913 75.265221,149.975128 71.447815,150.003708 
z"/>
<path fill="#A52552" opacity="1.000000" stroke="none" 
	d="
M134.037720,139.513977 
	C116.518799,139.897995 99.039146,139.979858 81.559647,139.954544 
	C80.161835,139.952530 78.765091,139.210663 77.149994,138.130005 
	C76.973618,136.728699 77.015106,136.009979 77.056602,135.291275 
	C96.065887,135.254578 115.075172,135.217880 134.546448,135.270142 
	C134.697952,136.634186 134.387497,137.909256 134.037720,139.513977 
z"/>
<path fill="#B6496E" opacity="1.000000" stroke="none" 
	d="
M76.639420,135.189301 
	C77.015106,136.009979 76.973618,136.728699 76.918442,137.807220 
	C76.495171,138.116638 76.085571,138.066223 75.366379,138.016144 
	C74.059212,137.310898 73.061630,136.605301 72.008842,135.593079 
	C73.376503,135.220078 74.799377,135.153702 76.639420,135.189301 
z"/>
</svg>